<?xml version="1.0" encoding="UTF-8" standalone="no"?>
<!-- Created with Inkscape (http://www.inkscape.org/) -->

<svg
   version="1.1"
   id="svg2"
   width="661.95636"
   height="642.71973"
   viewBox="0 0 661.95636 642.71973"
   xmlns="http://www.w3.org/2000/svg"
   xmlns:svg="http://www.w3.org/2000/svg">
  <defs
     id="defs6">
    <clipPath
       clipPathUnits="userSpaceOnUse"
       id="clipPath20">
      <path
         d="m 449.9831,224.72264 c 0,27.91807 -5.49925,55.56466 -16.18303,81.35759 -10.68378,25.79293 -26.34432,49.23058 -46.08537,68.97163 -19.74105,19.74106 -43.1787,35.40159 -68.97163,46.08538 -25.79293,10.68378 -53.43953,16.18303 -81.35759,16.18303 -27.91806,0 -55.56466,-5.49925 -81.35759,-16.18303 -25.79293,-10.68379 -49.23058,-26.34432 -68.97163,-46.08538 -19.741053,-19.74105 -35.401591,-43.1787 -46.085372,-68.97163 -10.68378,-25.79293 -16.18303,-53.43952 -16.18303,-81.35759 0,-27.91806 5.49925,-55.56466 16.18303,-81.35758 10.683781,-25.79293 26.344319,-49.230585 46.085372,-68.971637 19.74105,-19.741052 43.1787,-35.401591 68.97163,-46.085371 25.79293,-10.683781 53.43953,-16.183031 81.35759,-16.183031 27.91806,0 55.56466,5.49925 81.35759,16.183031 25.79293,10.68378 49.23058,26.344319 68.97163,46.085371 19.74105,19.741052 35.40159,43.178707 46.08537,68.971637 10.68378,25.79292 16.18303,53.43952 16.18303,81.35758 m -212.59762,0 c 0,0 0,0 0,0 0,0 0,0 0,0 0,0 0,0 0,0 0,0 0,0 0,0 0,0 0,0 0,0 0,0 0,0 0,0 0,0 0,0 0,0 0,0 0,0 0,0 0,0 0,0 0,0 0,0 0,0 0,0 0,0 0,0 0,0 0,0 0,0 0,0 0,0 0,0 0,0 0,0 0,0 0,0 0,0 0,0 0,0 0,0 0,0 0,0 z"
         id="path18" />
    </clipPath>
    <clipPath
       clipPathUnits="userSpaceOnUse"
       id="clipPath30">
      <path
         d="m 449.9831,224.72264 c 0,27.91807 -5.49925,55.56466 -16.18303,81.35759 -10.68378,25.79293 -26.34432,49.23058 -46.08537,68.97163 -19.74105,19.74106 -43.1787,35.40159 -68.97163,46.08538 -25.79293,10.68378 -53.43953,16.18303 -81.35759,16.18303 -27.91806,0 -55.56466,-5.49925 -81.35759,-16.18303 -25.79293,-10.68379 -49.23058,-26.34432 -68.97163,-46.08538 -19.741053,-19.74105 -35.401591,-43.1787 -46.085372,-68.97163 -10.68378,-25.79293 -16.18303,-53.43952 -16.18303,-81.35759 0,-27.91806 5.49925,-55.56466 16.18303,-81.35758 10.683781,-25.79293 26.344319,-49.230585 46.085372,-68.971637 19.74105,-19.741052 43.1787,-35.401591 68.97163,-46.085371 25.79293,-10.683781 53.43953,-16.183031 81.35759,-16.183031 27.91806,0 55.56466,5.49925 81.35759,16.183031 25.79293,10.68378 49.23058,26.344319 68.97163,46.085371 19.74105,19.741052 35.40159,43.178707 46.08537,68.971637 10.68378,25.79292 16.18303,53.43952 16.18303,81.35758 m -212.59762,0 c 0,0 0,0 0,0 0,0 0,0 0,0 0,0 0,0 0,0 0,0 0,0 0,0 0,0 0,0 0,0 0,0 0,0 0,0 0,0 0,0 0,0 0,0 0,0 0,0 0,0 0,0 0,0 0,0 0,0 0,0 0,0 0,0 0,0 0,0 0,0 0,0 0,0 0,0 0,0 0,0 0,0 0,0 0,0 0,0 0,0 0,0 0,0 0,0 z"
         id="path28" />
    </clipPath>
    <clipPath
       clipPathUnits="userSpaceOnUse"
       id="clipPath40">
      <path
         d="m 449.9831,224.72264 c 0,27.91807 -5.49925,55.56466 -16.18303,81.35759 -10.68378,25.79293 -26.34432,49.23058 -46.08537,68.97163 -19.74105,19.74106 -43.1787,35.40159 -68.97163,46.08538 -25.79293,10.68378 -53.43953,16.18303 -81.35759,16.18303 -27.91806,0 -55.56466,-5.49925 -81.35759,-16.18303 -25.79293,-10.68379 -49.23058,-26.34432 -68.97163,-46.08538 -19.741053,-19.74105 -35.401591,-43.1787 -46.085372,-68.97163 -10.68378,-25.79293 -16.18303,-53.43952 -16.18303,-81.35759 0,-27.91806 5.49925,-55.56466 16.18303,-81.35758 10.683781,-25.79293 26.344319,-49.230585 46.085372,-68.971637 19.74105,-19.741052 43.1787,-35.401591 68.97163,-46.085371 25.79293,-10.683781 53.43953,-16.183031 81.35759,-16.183031 27.91806,0 55.56466,5.49925 81.35759,16.183031 25.79293,10.68378 49.23058,26.344319 68.97163,46.085371 19.74105,19.741052 35.40159,43.178707 46.08537,68.971637 10.68378,25.79292 16.18303,53.43952 16.18303,81.35758 m -212.59762,0 c 0,0 0,0 0,0 0,0 0,0 0,0 0,0 0,0 0,0 0,0 0,0 0,0 0,0 0,0 0,0 0,0 0,0 0,0 0,0 0,0 0,0 0,0 0,0 0,0 0,0 0,0 0,0 0,0 0,0 0,0 0,0 0,0 0,0 0,0 0,0 0,0 0,0 0,0 0,0 0,0 0,0 0,0 0,0 0,0 0,0 0,0 0,0 0,0 z"
         id="path38" />
    </clipPath>
    <clipPath
       clipPathUnits="userSpaceOnUse"
       id="clipPath58">
      <path
         d="m 449.9831,224.72264 c 0,27.91807 -5.49925,55.56466 -16.18303,81.35759 -10.68378,25.79293 -26.34432,49.23058 -46.08537,68.97163 -19.74105,19.74106 -43.1787,35.40159 -68.97163,46.08538 -25.79293,10.68378 -53.43953,16.18303 -81.35759,16.18303 -27.91806,0 -55.56466,-5.49925 -81.35759,-16.18303 -25.79293,-10.68379 -49.23058,-26.34432 -68.97163,-46.08538 -19.741053,-19.74105 -35.401591,-43.1787 -46.085372,-68.97163 -10.68378,-25.79293 -16.18303,-53.43952 -16.18303,-81.35759 0,-27.91806 5.49925,-55.56466 16.18303,-81.35758 10.683781,-25.79293 26.344319,-49.230585 46.085372,-68.971637 19.74105,-19.741052 43.1787,-35.401591 68.97163,-46.085371 25.79293,-10.683781 53.43953,-16.183031 81.35759,-16.183031 27.91806,0 55.56466,5.49925 81.35759,16.183031 25.79293,10.68378 49.23058,26.344319 68.97163,46.085371 19.74105,19.741052 35.40159,43.178707 46.08537,68.971637 10.68378,25.79292 16.18303,53.43952 16.18303,81.35758 m -212.59762,0 c 0,0 0,0 0,0 0,0 0,0 0,0 0,0 0,0 0,0 0,0 0,0 0,0 0,0 0,0 0,0 0,0 0,0 0,0 0,0 0,0 0,0 0,0 0,0 0,0 0,0 0,0 0,0 0,0 0,0 0,0 0,0 0,0 0,0 0,0 0,0 0,0 0,0 0,0 0,0 0,0 0,0 0,0 0,0 0,0 0,0 0,0 0,0 0,0 z"
         id="path56" />
    </clipPath>
    <clipPath
       clipPathUnits="userSpaceOnUse"
       id="clipPath76">
      <path
         d="m 449.9831,224.72264 c 0,27.91807 -5.49925,55.56466 -16.18303,81.35759 -10.68378,25.79293 -26.34432,49.23058 -46.08537,68.97163 -19.74105,19.74106 -43.1787,35.40159 -68.97163,46.08538 -25.79293,10.68378 -53.43953,16.18303 -81.35759,16.18303 -27.91806,0 -55.56466,-5.49925 -81.35759,-16.18303 -25.79293,-10.68379 -49.23058,-26.34432 -68.97163,-46.08538 -19.741053,-19.74105 -35.401591,-43.1787 -46.085372,-68.97163 -10.68378,-25.79293 -16.18303,-53.43952 -16.18303,-81.35759 0,-27.91806 5.49925,-55.56466 16.18303,-81.35758 10.683781,-25.79293 26.344319,-49.230585 46.085372,-68.971637 19.74105,-19.741052 43.1787,-35.401591 68.97163,-46.085371 25.79293,-10.683781 53.43953,-16.183031 81.35759,-16.183031 27.91806,0 55.56466,5.49925 81.35759,16.183031 25.79293,10.68378 49.23058,26.344319 68.97163,46.085371 19.74105,19.741052 35.40159,43.178707 46.08537,68.971637 10.68378,25.79292 16.18303,53.43952 16.18303,81.35758 m -212.59762,0 c 0,0 0,0 0,0 0,0 0,0 0,0 0,0 0,0 0,0 0,0 0,0 0,0 0,0 0,0 0,0 0,0 0,0 0,0 0,0 0,0 0,0 0,0 0,0 0,0 0,0 0,0 0,0 0,0 0,0 0,0 0,0 0,0 0,0 0,0 0,0 0,0 0,0 0,0 0,0 0,0 0,0 0,0 0,0 0,0 0,0 0,0 0,0 0,0 z"
         id="path74" />
    </clipPath>
    <clipPath
       clipPathUnits="userSpaceOnUse"
       id="clipPath94">
      <path
         d="m 449.9831,224.72264 c 0,27.91807 -5.49925,55.56466 -16.18303,81.35759 -10.68378,25.79293 -26.34432,49.23058 -46.08537,68.97163 -19.74105,19.74106 -43.1787,35.40159 -68.97163,46.08538 -25.79293,10.68378 -53.43953,16.18303 -81.35759,16.18303 -27.91806,0 -55.56466,-5.49925 -81.35759,-16.18303 -25.79293,-10.68379 -49.23058,-26.34432 -68.97163,-46.08538 -19.741053,-19.74105 -35.401591,-43.1787 -46.085372,-68.97163 -10.68378,-25.79293 -16.18303,-53.43952 -16.18303,-81.35759 0,-27.91806 5.49925,-55.56466 16.18303,-81.35758 10.683781,-25.79293 26.344319,-49.230585 46.085372,-68.971637 19.74105,-19.741052 43.1787,-35.401591 68.97163,-46.085371 25.79293,-10.683781 53.43953,-16.183031 81.35759,-16.183031 27.91806,0 55.56466,5.49925 81.35759,16.183031 25.79293,10.68378 49.23058,26.344319 68.97163,46.085371 19.74105,19.741052 35.40159,43.178707 46.08537,68.971637 10.68378,25.79292 16.18303,53.43952 16.18303,81.35758 m -212.59762,0 c 0,0 0,0 0,0 0,0 0,0 0,0 0,0 0,0 0,0 0,0 0,0 0,0 0,0 0,0 0,0 0,0 0,0 0,0 0,0 0,0 0,0 0,0 0,0 0,0 0,0 0,0 0,0 0,0 0,0 0,0 0,0 0,0 0,0 0,0 0,0 0,0 0,0 0,0 0,0 0,0 0,0 0,0 0,0 0,0 0,0 0,0 0,0 0,0 z"
         id="path92" />
    </clipPath>
    <clipPath
       clipPathUnits="userSpaceOnUse"
       id="clipPath112">
      <path
         d="m 449.9831,224.72264 c 0,27.91807 -5.49925,55.56466 -16.18303,81.35759 -10.68378,25.79293 -26.34432,49.23058 -46.08537,68.97163 -19.74105,19.74106 -43.1787,35.40159 -68.97163,46.08538 -25.79293,10.68378 -53.43953,16.18303 -81.35759,16.18303 -27.91806,0 -55.56466,-5.49925 -81.35759,-16.18303 -25.79293,-10.68379 -49.23058,-26.34432 -68.97163,-46.08538 -19.741053,-19.74105 -35.401591,-43.1787 -46.085372,-68.97163 -10.68378,-25.79293 -16.18303,-53.43952 -16.18303,-81.35759 0,-27.91806 5.49925,-55.56466 16.18303,-81.35758 10.683781,-25.79293 26.344319,-49.230585 46.085372,-68.971637 19.74105,-19.741052 43.1787,-35.401591 68.97163,-46.085371 25.79293,-10.683781 53.43953,-16.183031 81.35759,-16.183031 27.91806,0 55.56466,5.49925 81.35759,16.183031 25.79293,10.68378 49.23058,26.344319 68.97163,46.085371 19.74105,19.741052 35.40159,43.178707 46.08537,68.971637 10.68378,25.79292 16.18303,53.43952 16.18303,81.35758 m -212.59762,0 c 0,0 0,0 0,0 0,0 0,0 0,0 0,0 0,0 0,0 0,0 0,0 0,0 0,0 0,0 0,0 0,0 0,0 0,0 0,0 0,0 0,0 0,0 0,0 0,0 0,0 0,0 0,0 0,0 0,0 0,0 0,0 0,0 0,0 0,0 0,0 0,0 0,0 0,0 0,0 0,0 0,0 0,0 0,0 0,0 0,0 0,0 0,0 0,0 z"
         id="path110" />
    </clipPath>
    <clipPath
       clipPathUnits="userSpaceOnUse"
       id="clipPath130">
      <path
         d="m 449.9831,224.72264 c 0,27.91807 -5.49925,55.56466 -16.18303,81.35759 -10.68378,25.79293 -26.34432,49.23058 -46.08537,68.97163 -19.74105,19.74106 -43.1787,35.40159 -68.97163,46.08538 -25.79293,10.68378 -53.43953,16.18303 -81.35759,16.18303 -27.91806,0 -55.56466,-5.49925 -81.35759,-16.18303 -25.79293,-10.68379 -49.23058,-26.34432 -68.97163,-46.08538 -19.741053,-19.74105 -35.401591,-43.1787 -46.085372,-68.97163 -10.68378,-25.79293 -16.18303,-53.43952 -16.18303,-81.35759 0,-27.91806 5.49925,-55.56466 16.18303,-81.35758 10.683781,-25.79293 26.344319,-49.230585 46.085372,-68.971637 19.74105,-19.741052 43.1787,-35.401591 68.97163,-46.085371 25.79293,-10.683781 53.43953,-16.183031 81.35759,-16.183031 27.91806,0 55.56466,5.49925 81.35759,16.183031 25.79293,10.68378 49.23058,26.344319 68.97163,46.085371 19.74105,19.741052 35.40159,43.178707 46.08537,68.971637 10.68378,25.79292 16.18303,53.43952 16.18303,81.35758 m -212.59762,0 c 0,0 0,0 0,0 0,0 0,0 0,0 0,0 0,0 0,0 0,0 0,0 0,0 0,0 0,0 0,0 0,0 0,0 0,0 0,0 0,0 0,0 0,0 0,0 0,0 0,0 0,0 0,0 0,0 0,0 0,0 0,0 0,0 0,0 0,0 0,0 0,0 0,0 0,0 0,0 0,0 0,0 0,0 0,0 0,0 0,0 0,0 0,0 0,0 z"
         id="path128" />
    </clipPath>
    <clipPath
       clipPathUnits="userSpaceOnUse"
       id="clipPath148">
      <path
         d="m 449.9831,224.72264 c 0,27.91807 -5.49925,55.56466 -16.18303,81.35759 -10.68378,25.79293 -26.34432,49.23058 -46.08537,68.97163 -19.74105,19.74106 -43.1787,35.40159 -68.97163,46.08538 -25.79293,10.68378 -53.43953,16.18303 -81.35759,16.18303 -27.91806,0 -55.56466,-5.49925 -81.35759,-16.18303 -25.79293,-10.68379 -49.23058,-26.34432 -68.97163,-46.08538 -19.741053,-19.74105 -35.401591,-43.1787 -46.085372,-68.97163 -10.68378,-25.79293 -16.18303,-53.43952 -16.18303,-81.35759 0,-27.91806 5.49925,-55.56466 16.18303,-81.35758 10.683781,-25.79293 26.344319,-49.230585 46.085372,-68.971637 19.74105,-19.741052 43.1787,-35.401591 68.97163,-46.085371 25.79293,-10.683781 53.43953,-16.183031 81.35759,-16.183031 27.91806,0 55.56466,5.49925 81.35759,16.183031 25.79293,10.68378 49.23058,26.344319 68.97163,46.085371 19.74105,19.741052 35.40159,43.178707 46.08537,68.971637 10.68378,25.79292 16.18303,53.43952 16.18303,81.35758 m -212.59762,0 c 0,0 0,0 0,0 0,0 0,0 0,0 0,0 0,0 0,0 0,0 0,0 0,0 0,0 0,0 0,0 0,0 0,0 0,0 0,0 0,0 0,0 0,0 0,0 0,0 0,0 0,0 0,0 0,0 0,0 0,0 0,0 0,0 0,0 0,0 0,0 0,0 0,0 0,0 0,0 0,0 0,0 0,0 0,0 0,0 0,0 0,0 0,0 0,0 z"
         id="path146" />
    </clipPath>
    <clipPath
       clipPathUnits="userSpaceOnUse"
       id="clipPath166">
      <path
         d="m 449.9831,224.72264 c 0,27.91807 -5.49925,55.56466 -16.18303,81.35759 -10.68378,25.79293 -26.34432,49.23058 -46.08537,68.97163 -19.74105,19.74106 -43.1787,35.40159 -68.97163,46.08538 -25.79293,10.68378 -53.43953,16.18303 -81.35759,16.18303 -27.91806,0 -55.56466,-5.49925 -81.35759,-16.18303 -25.79293,-10.68379 -49.23058,-26.34432 -68.97163,-46.08538 -19.741053,-19.74105 -35.401591,-43.1787 -46.085372,-68.97163 -10.68378,-25.79293 -16.18303,-53.43952 -16.18303,-81.35759 0,-27.91806 5.49925,-55.56466 16.18303,-81.35758 10.683781,-25.79293 26.344319,-49.230585 46.085372,-68.971637 19.74105,-19.741052 43.1787,-35.401591 68.97163,-46.085371 25.79293,-10.683781 53.43953,-16.183031 81.35759,-16.183031 27.91806,0 55.56466,5.49925 81.35759,16.183031 25.79293,10.68378 49.23058,26.344319 68.97163,46.085371 19.74105,19.741052 35.40159,43.178707 46.08537,68.971637 10.68378,25.79292 16.18303,53.43952 16.18303,81.35758 m -212.59762,0 c 0,0 0,0 0,0 0,0 0,0 0,0 0,0 0,0 0,0 0,0 0,0 0,0 0,0 0,0 0,0 0,0 0,0 0,0 0,0 0,0 0,0 0,0 0,0 0,0 0,0 0,0 0,0 0,0 0,0 0,0 0,0 0,0 0,0 0,0 0,0 0,0 0,0 0,0 0,0 0,0 0,0 0,0 0,0 0,0 0,0 0,0 0,0 0,0 z"
         id="path164" />
    </clipPath>
    <clipPath
       clipPathUnits="userSpaceOnUse"
       id="clipPath184">
      <path
         d="m 449.9831,224.72264 c 0,27.91807 -5.49925,55.56466 -16.18303,81.35759 -10.68378,25.79293 -26.34432,49.23058 -46.08537,68.97163 -19.74105,19.74106 -43.1787,35.40159 -68.97163,46.08538 -25.79293,10.68378 -53.43953,16.18303 -81.35759,16.18303 -27.91806,0 -55.56466,-5.49925 -81.35759,-16.18303 -25.79293,-10.68379 -49.23058,-26.34432 -68.97163,-46.08538 -19.741053,-19.74105 -35.401591,-43.1787 -46.085372,-68.97163 -10.68378,-25.79293 -16.18303,-53.43952 -16.18303,-81.35759 0,-27.91806 5.49925,-55.56466 16.18303,-81.35758 10.683781,-25.79293 26.344319,-49.230585 46.085372,-68.971637 19.74105,-19.741052 43.1787,-35.401591 68.97163,-46.085371 25.79293,-10.683781 53.43953,-16.183031 81.35759,-16.183031 27.91806,0 55.56466,5.49925 81.35759,16.183031 25.79293,10.68378 49.23058,26.344319 68.97163,46.085371 19.74105,19.741052 35.40159,43.178707 46.08537,68.971637 10.68378,25.79292 16.18303,53.43952 16.18303,81.35758 m -212.59762,0 c 0,0 0,0 0,0 0,0 0,0 0,0 0,0 0,0 0,0 0,0 0,0 0,0 0,0 0,0 0,0 0,0 0,0 0,0 0,0 0,0 0,0 0,0 0,0 0,0 0,0 0,0 0,0 0,0 0,0 0,0 0,0 0,0 0,0 0,0 0,0 0,0 0,0 0,0 0,0 0,0 0,0 0,0 0,0 0,0 0,0 0,0 0,0 0,0 z"
         id="path182" />
    </clipPath>
    <clipPath
       clipPathUnits="userSpaceOnUse"
       id="clipPath202">
      <path
         d="m 449.9831,224.72264 c 0,27.91807 -5.49925,55.56466 -16.18303,81.35759 -10.68378,25.79293 -26.34432,49.23058 -46.08537,68.97163 -19.74105,19.74106 -43.1787,35.40159 -68.97163,46.08538 -25.79293,10.68378 -53.43953,16.18303 -81.35759,16.18303 -27.91806,0 -55.56466,-5.49925 -81.35759,-16.18303 -25.79293,-10.68379 -49.23058,-26.34432 -68.97163,-46.08538 -19.741053,-19.74105 -35.401591,-43.1787 -46.085372,-68.97163 -10.68378,-25.79293 -16.18303,-53.43952 -16.18303,-81.35759 0,-27.91806 5.49925,-55.56466 16.18303,-81.35758 10.683781,-25.79293 26.344319,-49.230585 46.085372,-68.971637 19.74105,-19.741052 43.1787,-35.401591 68.97163,-46.085371 25.79293,-10.683781 53.43953,-16.183031 81.35759,-16.183031 27.91806,0 55.56466,5.49925 81.35759,16.183031 25.79293,10.68378 49.23058,26.344319 68.97163,46.085371 19.74105,19.741052 35.40159,43.178707 46.08537,68.971637 10.68378,25.79292 16.18303,53.43952 16.18303,81.35758 m -212.59762,0 c 0,0 0,0 0,0 0,0 0,0 0,0 0,0 0,0 0,0 0,0 0,0 0,0 0,0 0,0 0,0 0,0 0,0 0,0 0,0 0,0 0,0 0,0 0,0 0,0 0,0 0,0 0,0 0,0 0,0 0,0 0,0 0,0 0,0 0,0 0,0 0,0 0,0 0,0 0,0 0,0 0,0 0,0 0,0 0,0 0,0 0,0 0,0 0,0 z"
         id="path200" />
    </clipPath>
    <clipPath
       clipPathUnits="userSpaceOnUse"
       id="clipPath212">
      <path
         d="m 449.9831,224.72264 c 0,27.91807 -5.49925,55.56466 -16.18303,81.35759 -10.68378,25.79293 -26.34432,49.23058 -46.08537,68.97163 -19.74105,19.74106 -43.1787,35.40159 -68.97163,46.08538 -25.79293,10.68378 -53.43953,16.18303 -81.35759,16.18303 -27.91806,0 -55.56466,-5.49925 -81.35759,-16.18303 -25.79293,-10.68379 -49.23058,-26.34432 -68.97163,-46.08538 -19.741053,-19.74105 -35.401591,-43.1787 -46.085372,-68.97163 -10.68378,-25.79293 -16.18303,-53.43952 -16.18303,-81.35759 0,-27.91806 5.49925,-55.56466 16.18303,-81.35758 10.683781,-25.79293 26.344319,-49.230585 46.085372,-68.971637 19.74105,-19.741052 43.1787,-35.401591 68.97163,-46.085371 25.79293,-10.683781 53.43953,-16.183031 81.35759,-16.183031 27.91806,0 55.56466,5.49925 81.35759,16.183031 25.79293,10.68378 49.23058,26.344319 68.97163,46.085371 19.74105,19.741052 35.40159,43.178707 46.08537,68.971637 10.68378,25.79292 16.18303,53.43952 16.18303,81.35758 m -212.59762,0 c 0,0 0,0 0,0 0,0 0,0 0,0 0,0 0,0 0,0 0,0 0,0 0,0 0,0 0,0 0,0 0,0 0,0 0,0 0,0 0,0 0,0 0,0 0,0 0,0 0,0 0,0 0,0 0,0 0,0 0,0 0,0 0,0 0,0 0,0 0,0 0,0 0,0 0,0 0,0 0,0 0,0 0,0 0,0 0,0 0,0 0,0 0,0 0,0 z"
         id="path210" />
    </clipPath>
    <clipPath
       clipPathUnits="userSpaceOnUse"
       id="clipPath222">
      <path
         d="m 449.9831,224.72264 c 0,27.91807 -5.49925,55.56466 -16.18303,81.35759 -10.68378,25.79293 -26.34432,49.23058 -46.08537,68.97163 -19.74105,19.74106 -43.1787,35.40159 -68.97163,46.08538 -25.79293,10.68378 -53.43953,16.18303 -81.35759,16.18303 -27.91806,0 -55.56466,-5.49925 -81.35759,-16.18303 -25.79293,-10.68379 -49.23058,-26.34432 -68.97163,-46.08538 -19.741053,-19.74105 -35.401591,-43.1787 -46.085372,-68.97163 -10.68378,-25.79293 -16.18303,-53.43952 -16.18303,-81.35759 0,-27.91806 5.49925,-55.56466 16.18303,-81.35758 10.683781,-25.79293 26.344319,-49.230585 46.085372,-68.971637 19.74105,-19.741052 43.1787,-35.401591 68.97163,-46.085371 25.79293,-10.683781 53.43953,-16.183031 81.35759,-16.183031 27.91806,0 55.56466,5.49925 81.35759,16.183031 25.79293,10.68378 49.23058,26.344319 68.97163,46.085371 19.74105,19.741052 35.40159,43.178707 46.08537,68.971637 10.68378,25.79292 16.18303,53.43952 16.18303,81.35758 m -212.59762,0 c 0,0 0,0 0,0 0,0 0,0 0,0 0,0 0,0 0,0 0,0 0,0 0,0 0,0 0,0 0,0 0,0 0,0 0,0 0,0 0,0 0,0 0,0 0,0 0,0 0,0 0,0 0,0 0,0 0,0 0,0 0,0 0,0 0,0 0,0 0,0 0,0 0,0 0,0 0,0 0,0 0,0 0,0 0,0 0,0 0,0 0,0 0,0 0,0 z"
         id="path220" />
    </clipPath>
    <clipPath
       clipPathUnits="userSpaceOnUse"
       id="clipPath232">
      <path
         d="m 449.9831,224.72264 c 0,27.91807 -5.49925,55.56466 -16.18303,81.35759 -10.68378,25.79293 -26.34432,49.23058 -46.08537,68.97163 -19.74105,19.74106 -43.1787,35.40159 -68.97163,46.08538 -25.79293,10.68378 -53.43953,16.18303 -81.35759,16.18303 -27.91806,0 -55.56466,-5.49925 -81.35759,-16.18303 -25.79293,-10.68379 -49.23058,-26.34432 -68.97163,-46.08538 -19.741053,-19.74105 -35.401591,-43.1787 -46.085372,-68.97163 -10.68378,-25.79293 -16.18303,-53.43952 -16.18303,-81.35759 0,-27.91806 5.49925,-55.56466 16.18303,-81.35758 10.683781,-25.79293 26.344319,-49.230585 46.085372,-68.971637 19.74105,-19.741052 43.1787,-35.401591 68.97163,-46.085371 25.79293,-10.683781 53.43953,-16.183031 81.35759,-16.183031 27.91806,0 55.56466,5.49925 81.35759,16.183031 25.79293,10.68378 49.23058,26.344319 68.97163,46.085371 19.74105,19.741052 35.40159,43.178707 46.08537,68.971637 10.68378,25.79292 16.18303,53.43952 16.18303,81.35758 m -212.59762,0 c 0,0 0,0 0,0 0,0 0,0 0,0 0,0 0,0 0,0 0,0 0,0 0,0 0,0 0,0 0,0 0,0 0,0 0,0 0,0 0,0 0,0 0,0 0,0 0,0 0,0 0,0 0,0 0,0 0,0 0,0 0,0 0,0 0,0 0,0 0,0 0,0 0,0 0,0 0,0 0,0 0,0 0,0 0,0 0,0 0,0 0,0 0,0 0,0 z"
         id="path230" />
    </clipPath>
    <clipPath
       clipPathUnits="userSpaceOnUse"
       id="clipPath242">
      <path
         d="m 449.9831,224.72264 c 0,27.91807 -5.49925,55.56466 -16.18303,81.35759 -10.68378,25.79293 -26.34432,49.23058 -46.08537,68.97163 -19.74105,19.74106 -43.1787,35.40159 -68.97163,46.08538 -25.79293,10.68378 -53.43953,16.18303 -81.35759,16.18303 -27.91806,0 -55.56466,-5.49925 -81.35759,-16.18303 -25.79293,-10.68379 -49.23058,-26.34432 -68.97163,-46.08538 -19.741053,-19.74105 -35.401591,-43.1787 -46.085372,-68.97163 -10.68378,-25.79293 -16.18303,-53.43952 -16.18303,-81.35759 0,-27.91806 5.49925,-55.56466 16.18303,-81.35758 10.683781,-25.79293 26.344319,-49.230585 46.085372,-68.971637 19.74105,-19.741052 43.1787,-35.401591 68.97163,-46.085371 25.79293,-10.683781 53.43953,-16.183031 81.35759,-16.183031 27.91806,0 55.56466,5.49925 81.35759,16.183031 25.79293,10.68378 49.23058,26.344319 68.97163,46.085371 19.74105,19.741052 35.40159,43.178707 46.08537,68.971637 10.68378,25.79292 16.18303,53.43952 16.18303,81.35758 m -212.59762,0 c 0,0 0,0 0,0 0,0 0,0 0,0 0,0 0,0 0,0 0,0 0,0 0,0 0,0 0,0 0,0 0,0 0,0 0,0 0,0 0,0 0,0 0,0 0,0 0,0 0,0 0,0 0,0 0,0 0,0 0,0 0,0 0,0 0,0 0,0 0,0 0,0 0,0 0,0 0,0 0,0 0,0 0,0 0,0 0,0 0,0 0,0 0,0 0,0 z"
         id="path240" />
    </clipPath>
    <clipPath
       clipPathUnits="userSpaceOnUse"
       id="clipPath252">
      <path
         d="m 449.9831,224.72264 c 0,27.91807 -5.49925,55.56466 -16.18303,81.35759 -10.68378,25.79293 -26.34432,49.23058 -46.08537,68.97163 -19.74105,19.74106 -43.1787,35.40159 -68.97163,46.08538 -25.79293,10.68378 -53.43953,16.18303 -81.35759,16.18303 -27.91806,0 -55.56466,-5.49925 -81.35759,-16.18303 -25.79293,-10.68379 -49.23058,-26.34432 -68.97163,-46.08538 -19.741053,-19.74105 -35.401591,-43.1787 -46.085372,-68.97163 -10.68378,-25.79293 -16.18303,-53.43952 -16.18303,-81.35759 0,-27.91806 5.49925,-55.56466 16.18303,-81.35758 10.683781,-25.79293 26.344319,-49.230585 46.085372,-68.971637 19.74105,-19.741052 43.1787,-35.401591 68.97163,-46.085371 25.79293,-10.683781 53.43953,-16.183031 81.35759,-16.183031 27.91806,0 55.56466,5.49925 81.35759,16.183031 25.79293,10.68378 49.23058,26.344319 68.97163,46.085371 19.74105,19.741052 35.40159,43.178707 46.08537,68.971637 10.68378,25.79292 16.18303,53.43952 16.18303,81.35758 m -212.59762,0 c 0,0 0,0 0,0 0,0 0,0 0,0 0,0 0,0 0,0 0,0 0,0 0,0 0,0 0,0 0,0 0,0 0,0 0,0 0,0 0,0 0,0 0,0 0,0 0,0 0,0 0,0 0,0 0,0 0,0 0,0 0,0 0,0 0,0 0,0 0,0 0,0 0,0 0,0 0,0 0,0 0,0 0,0 0,0 0,0 0,0 0,0 0,0 0,0 z"
         id="path250" />
    </clipPath>
    <clipPath
       clipPathUnits="userSpaceOnUse"
       id="clipPath262">
      <path
         d="m 449.9831,224.72264 c 0,27.91807 -5.49925,55.56466 -16.18303,81.35759 -10.68378,25.79293 -26.34432,49.23058 -46.08537,68.97163 -19.74105,19.74106 -43.1787,35.40159 -68.97163,46.08538 -25.79293,10.68378 -53.43953,16.18303 -81.35759,16.18303 -27.91806,0 -55.56466,-5.49925 -81.35759,-16.18303 -25.79293,-10.68379 -49.23058,-26.34432 -68.97163,-46.08538 -19.741053,-19.74105 -35.401591,-43.1787 -46.085372,-68.97163 -10.68378,-25.79293 -16.18303,-53.43952 -16.18303,-81.35759 0,-27.91806 5.49925,-55.56466 16.18303,-81.35758 10.683781,-25.79293 26.344319,-49.230585 46.085372,-68.971637 19.74105,-19.741052 43.1787,-35.401591 68.97163,-46.085371 25.79293,-10.683781 53.43953,-16.183031 81.35759,-16.183031 27.91806,0 55.56466,5.49925 81.35759,16.183031 25.79293,10.68378 49.23058,26.344319 68.97163,46.085371 19.74105,19.741052 35.40159,43.178707 46.08537,68.971637 10.68378,25.79292 16.18303,53.43952 16.18303,81.35758 m -212.59762,0 c 0,0 0,0 0,0 0,0 0,0 0,0 0,0 0,0 0,0 0,0 0,0 0,0 0,0 0,0 0,0 0,0 0,0 0,0 0,0 0,0 0,0 0,0 0,0 0,0 0,0 0,0 0,0 0,0 0,0 0,0 0,0 0,0 0,0 0,0 0,0 0,0 0,0 0,0 0,0 0,0 0,0 0,0 0,0 0,0 0,0 0,0 0,0 0,0 z"
         id="path260" />
    </clipPath>
    <clipPath
       clipPathUnits="userSpaceOnUse"
       id="clipPath272">
      <path
         d="m 449.9831,224.72264 c 0,27.91807 -5.49925,55.56466 -16.18303,81.35759 -10.68378,25.79293 -26.34432,49.23058 -46.08537,68.97163 -19.74105,19.74106 -43.1787,35.40159 -68.97163,46.08538 -25.79293,10.68378 -53.43953,16.18303 -81.35759,16.18303 -27.91806,0 -55.56466,-5.49925 -81.35759,-16.18303 -25.79293,-10.68379 -49.23058,-26.34432 -68.97163,-46.08538 -19.741053,-19.74105 -35.401591,-43.1787 -46.085372,-68.97163 -10.68378,-25.79293 -16.18303,-53.43952 -16.18303,-81.35759 0,-27.91806 5.49925,-55.56466 16.18303,-81.35758 10.683781,-25.79293 26.344319,-49.230585 46.085372,-68.971637 19.74105,-19.741052 43.1787,-35.401591 68.97163,-46.085371 25.79293,-10.683781 53.43953,-16.183031 81.35759,-16.183031 27.91806,0 55.56466,5.49925 81.35759,16.183031 25.79293,10.68378 49.23058,26.344319 68.97163,46.085371 19.74105,19.741052 35.40159,43.178707 46.08537,68.971637 10.68378,25.79292 16.18303,53.43952 16.18303,81.35758 m -212.59762,0 c 0,0 0,0 0,0 0,0 0,0 0,0 0,0 0,0 0,0 0,0 0,0 0,0 0,0 0,0 0,0 0,0 0,0 0,0 0,0 0,0 0,0 0,0 0,0 0,0 0,0 0,0 0,0 0,0 0,0 0,0 0,0 0,0 0,0 0,0 0,0 0,0 0,0 0,0 0,0 0,0 0,0 0,0 0,0 0,0 0,0 0,0 0,0 0,0 z"
         id="path270" />
    </clipPath>
    <clipPath
       clipPathUnits="userSpaceOnUse"
       id="clipPath282">
      <path
         d="m 449.9831,224.72264 c 0,27.91807 -5.49925,55.56466 -16.18303,81.35759 -10.68378,25.79293 -26.34432,49.23058 -46.08537,68.97163 -19.74105,19.74106 -43.1787,35.40159 -68.97163,46.08538 -25.79293,10.68378 -53.43953,16.18303 -81.35759,16.18303 -27.91806,0 -55.56466,-5.49925 -81.35759,-16.18303 -25.79293,-10.68379 -49.23058,-26.34432 -68.97163,-46.08538 -19.741053,-19.74105 -35.401591,-43.1787 -46.085372,-68.97163 -10.68378,-25.79293 -16.18303,-53.43952 -16.18303,-81.35759 0,-27.91806 5.49925,-55.56466 16.18303,-81.35758 10.683781,-25.79293 26.344319,-49.230585 46.085372,-68.971637 19.74105,-19.741052 43.1787,-35.401591 68.97163,-46.085371 25.79293,-10.683781 53.43953,-16.183031 81.35759,-16.183031 27.91806,0 55.56466,5.49925 81.35759,16.183031 25.79293,10.68378 49.23058,26.344319 68.97163,46.085371 19.74105,19.741052 35.40159,43.178707 46.08537,68.971637 10.68378,25.79292 16.18303,53.43952 16.18303,81.35758 m -212.59762,0 c 0,0 0,0 0,0 0,0 0,0 0,0 0,0 0,0 0,0 0,0 0,0 0,0 0,0 0,0 0,0 0,0 0,0 0,0 0,0 0,0 0,0 0,0 0,0 0,0 0,0 0,0 0,0 0,0 0,0 0,0 0,0 0,0 0,0 0,0 0,0 0,0 0,0 0,0 0,0 0,0 0,0 0,0 0,0 0,0 0,0 0,0 0,0 0,0 z"
         id="path280" />
    </clipPath>
    <clipPath
       clipPathUnits="userSpaceOnUse"
       id="clipPath292">
      <path
         d="m 449.9831,224.72264 c 0,27.91807 -5.49925,55.56466 -16.18303,81.35759 -10.68378,25.79293 -26.34432,49.23058 -46.08537,68.97163 -19.74105,19.74106 -43.1787,35.40159 -68.97163,46.08538 -25.79293,10.68378 -53.43953,16.18303 -81.35759,16.18303 -27.91806,0 -55.56466,-5.49925 -81.35759,-16.18303 -25.79293,-10.68379 -49.23058,-26.34432 -68.97163,-46.08538 -19.741053,-19.74105 -35.401591,-43.1787 -46.085372,-68.97163 -10.68378,-25.79293 -16.18303,-53.43952 -16.18303,-81.35759 0,-27.91806 5.49925,-55.56466 16.18303,-81.35758 10.683781,-25.79293 26.344319,-49.230585 46.085372,-68.971637 19.74105,-19.741052 43.1787,-35.401591 68.97163,-46.085371 25.79293,-10.683781 53.43953,-16.183031 81.35759,-16.183031 27.91806,0 55.56466,5.49925 81.35759,16.183031 25.79293,10.68378 49.23058,26.344319 68.97163,46.085371 19.74105,19.741052 35.40159,43.178707 46.08537,68.971637 10.68378,25.79292 16.18303,53.43952 16.18303,81.35758 m -212.59762,0 c 0,0 0,0 0,0 0,0 0,0 0,0 0,0 0,0 0,0 0,0 0,0 0,0 0,0 0,0 0,0 0,0 0,0 0,0 0,0 0,0 0,0 0,0 0,0 0,0 0,0 0,0 0,0 0,0 0,0 0,0 0,0 0,0 0,0 0,0 0,0 0,0 0,0 0,0 0,0 0,0 0,0 0,0 0,0 0,0 0,0 0,0 0,0 0,0 z"
         id="path290" />
    </clipPath>
    <clipPath
       clipPathUnits="userSpaceOnUse"
       id="clipPath302">
      <path
         d="m 449.9831,224.72264 c 0,27.91807 -5.49925,55.56466 -16.18303,81.35759 -10.68378,25.79293 -26.34432,49.23058 -46.08537,68.97163 -19.74105,19.74106 -43.1787,35.40159 -68.97163,46.08538 -25.79293,10.68378 -53.43953,16.18303 -81.35759,16.18303 -27.91806,0 -55.56466,-5.49925 -81.35759,-16.18303 -25.79293,-10.68379 -49.23058,-26.34432 -68.97163,-46.08538 -19.741053,-19.74105 -35.401591,-43.1787 -46.085372,-68.97163 -10.68378,-25.79293 -16.18303,-53.43952 -16.18303,-81.35759 0,-27.91806 5.49925,-55.56466 16.18303,-81.35758 10.683781,-25.79293 26.344319,-49.230585 46.085372,-68.971637 19.74105,-19.741052 43.1787,-35.401591 68.97163,-46.085371 25.79293,-10.683781 53.43953,-16.183031 81.35759,-16.183031 27.91806,0 55.56466,5.49925 81.35759,16.183031 25.79293,10.68378 49.23058,26.344319 68.97163,46.085371 19.74105,19.741052 35.40159,43.178707 46.08537,68.971637 10.68378,25.79292 16.18303,53.43952 16.18303,81.35758 m -212.59762,0 c 0,0 0,0 0,0 0,0 0,0 0,0 0,0 0,0 0,0 0,0 0,0 0,0 0,0 0,0 0,0 0,0 0,0 0,0 0,0 0,0 0,0 0,0 0,0 0,0 0,0 0,0 0,0 0,0 0,0 0,0 0,0 0,0 0,0 0,0 0,0 0,0 0,0 0,0 0,0 0,0 0,0 0,0 0,0 0,0 0,0 0,0 0,0 0,0 z"
         id="path300" />
    </clipPath>
    <clipPath
       clipPathUnits="userSpaceOnUse"
       id="clipPath312">
      <path
         d="m 449.9831,224.72264 c 0,27.91807 -5.49925,55.56466 -16.18303,81.35759 -10.68378,25.79293 -26.34432,49.23058 -46.08537,68.97163 -19.74105,19.74106 -43.1787,35.40159 -68.97163,46.08538 -25.79293,10.68378 -53.43953,16.18303 -81.35759,16.18303 -27.91806,0 -55.56466,-5.49925 -81.35759,-16.18303 -25.79293,-10.68379 -49.23058,-26.34432 -68.97163,-46.08538 -19.741053,-19.74105 -35.401591,-43.1787 -46.085372,-68.97163 -10.68378,-25.79293 -16.18303,-53.43952 -16.18303,-81.35759 0,-27.91806 5.49925,-55.56466 16.18303,-81.35758 10.683781,-25.79293 26.344319,-49.230585 46.085372,-68.971637 19.74105,-19.741052 43.1787,-35.401591 68.97163,-46.085371 25.79293,-10.683781 53.43953,-16.183031 81.35759,-16.183031 27.91806,0 55.56466,5.49925 81.35759,16.183031 25.79293,10.68378 49.23058,26.344319 68.97163,46.085371 19.74105,19.741052 35.40159,43.178707 46.08537,68.971637 10.68378,25.79292 16.18303,53.43952 16.18303,81.35758 m -212.59762,0 c 0,0 0,0 0,0 0,0 0,0 0,0 0,0 0,0 0,0 0,0 0,0 0,0 0,0 0,0 0,0 0,0 0,0 0,0 0,0 0,0 0,0 0,0 0,0 0,0 0,0 0,0 0,0 0,0 0,0 0,0 0,0 0,0 0,0 0,0 0,0 0,0 0,0 0,0 0,0 0,0 0,0 0,0 0,0 0,0 0,0 0,0 0,0 0,0 z"
         id="path310" />
    </clipPath>
    <clipPath
       clipPathUnits="userSpaceOnUse"
       id="clipPath322">
      <path
         d="m 449.9831,224.72264 c 0,27.91807 -5.49925,55.56466 -16.18303,81.35759 -10.68378,25.79293 -26.34432,49.23058 -46.08537,68.97163 -19.74105,19.74106 -43.1787,35.40159 -68.97163,46.08538 -25.79293,10.68378 -53.43953,16.18303 -81.35759,16.18303 -27.91806,0 -55.56466,-5.49925 -81.35759,-16.18303 -25.79293,-10.68379 -49.23058,-26.34432 -68.97163,-46.08538 -19.741053,-19.74105 -35.401591,-43.1787 -46.085372,-68.97163 -10.68378,-25.79293 -16.18303,-53.43952 -16.18303,-81.35759 0,-27.91806 5.49925,-55.56466 16.18303,-81.35758 10.683781,-25.79293 26.344319,-49.230585 46.085372,-68.971637 19.74105,-19.741052 43.1787,-35.401591 68.97163,-46.085371 25.79293,-10.683781 53.43953,-16.183031 81.35759,-16.183031 27.91806,0 55.56466,5.49925 81.35759,16.183031 25.79293,10.68378 49.23058,26.344319 68.97163,46.085371 19.74105,19.741052 35.40159,43.178707 46.08537,68.971637 10.68378,25.79292 16.18303,53.43952 16.18303,81.35758 m -212.59762,0 c 0,0 0,0 0,0 0,0 0,0 0,0 0,0 0,0 0,0 0,0 0,0 0,0 0,0 0,0 0,0 0,0 0,0 0,0 0,0 0,0 0,0 0,0 0,0 0,0 0,0 0,0 0,0 0,0 0,0 0,0 0,0 0,0 0,0 0,0 0,0 0,0 0,0 0,0 0,0 0,0 0,0 0,0 0,0 0,0 0,0 0,0 0,0 0,0 z"
         id="path320" />
    </clipPath>
    <clipPath
       clipPathUnits="userSpaceOnUse"
       id="clipPath332">
      <path
         d="m 449.9831,224.72264 c 0,27.91807 -5.49925,55.56466 -16.18303,81.35759 -10.68378,25.79293 -26.34432,49.23058 -46.08537,68.97163 -19.74105,19.74106 -43.1787,35.40159 -68.97163,46.08538 -25.79293,10.68378 -53.43953,16.18303 -81.35759,16.18303 -27.91806,0 -55.56466,-5.49925 -81.35759,-16.18303 -25.79293,-10.68379 -49.23058,-26.34432 -68.97163,-46.08538 -19.741053,-19.74105 -35.401591,-43.1787 -46.085372,-68.97163 -10.68378,-25.79293 -16.18303,-53.43952 -16.18303,-81.35759 0,-27.91806 5.49925,-55.56466 16.18303,-81.35758 10.683781,-25.79293 26.344319,-49.230585 46.085372,-68.971637 19.74105,-19.741052 43.1787,-35.401591 68.97163,-46.085371 25.79293,-10.683781 53.43953,-16.183031 81.35759,-16.183031 27.91806,0 55.56466,5.49925 81.35759,16.183031 25.79293,10.68378 49.23058,26.344319 68.97163,46.085371 19.74105,19.741052 35.40159,43.178707 46.08537,68.971637 10.68378,25.79292 16.18303,53.43952 16.18303,81.35758 m -212.59762,0 c 0,0 0,0 0,0 0,0 0,0 0,0 0,0 0,0 0,0 0,0 0,0 0,0 0,0 0,0 0,0 0,0 0,0 0,0 0,0 0,0 0,0 0,0 0,0 0,0 0,0 0,0 0,0 0,0 0,0 0,0 0,0 0,0 0,0 0,0 0,0 0,0 0,0 0,0 0,0 0,0 0,0 0,0 0,0 0,0 0,0 0,0 0,0 0,0 z"
         id="path330" />
    </clipPath>
  </defs>
  <g
     id="g8"
     transform="matrix(1.3333333,0,0,-1.3333333,0,642.71972)">
    <path
       d="M 0,0 H 496.46728 V 482.03979 H 0 Z"
       style="fill:#ffffff;fill-opacity:1;fill-rule:nonzero;stroke:none"
       id="path10" />
    <path
       d="m 449.9831,224.72264 c 0,27.91807 -5.49925,55.56466 -16.18303,81.35759 -10.68378,25.79293 -26.34432,49.23058 -46.08537,68.97163 -19.74105,19.74106 -43.1787,35.40159 -68.97163,46.08538 -25.79293,10.68378 -53.43953,16.18303 -81.35759,16.18303 -27.91806,0 -55.56466,-5.49925 -81.35759,-16.18303 -25.79293,-10.68379 -49.23058,-26.34432 -68.97163,-46.08538 -19.741053,-19.74105 -35.401591,-43.1787 -46.085372,-68.97163 -10.68378,-25.79293 -16.18303,-53.43952 -16.18303,-81.35759 0,-27.91806 5.49925,-55.56466 16.18303,-81.35758 10.683781,-25.79293 26.344319,-49.230585 46.085372,-68.971637 19.74105,-19.741052 43.1787,-35.401591 68.97163,-46.085371 25.79293,-10.683781 53.43953,-16.183031 81.35759,-16.183031 27.91806,0 55.56466,5.49925 81.35759,16.183031 25.79293,10.68378 49.23058,26.344319 68.97163,46.085371 19.74105,19.741052 35.40159,43.178707 46.08537,68.971637 10.68378,25.79292 16.18303,53.43952 16.18303,81.35758 m -212.59762,0 c 0,0 0,0 0,0 0,0 0,0 0,0 0,0 0,0 0,0 0,0 0,0 0,0 0,0 0,0 0,0 0,0 0,0 0,0 0,0 0,0 0,0 0,0 0,0 0,0 0,0 0,0 0,0 0,0 0,0 0,0 0,0 0,0 0,0 0,0 0,0 0,0 0,0 0,0 0,0 0,0 0,0 0,0 0,0 0,0 0,0 0,0 0,0 0,0 z"
       style="fill:#ffffff;fill-opacity:1;fill-rule:nonzero;stroke:none"
       id="path12" />
    <g
       id="g14">
      <g
         id="g16"
         clip-path="url(#clipPath20)">
        <path
           d="m 384.94936,224.72264 -37.17546,92.62688 -93.76623,1.64224 -97.21562,45.32279 -67.756759,-85.59685 38.863659,-93.84489 46.82365,-68.68546 86.78517,-28.268999 61.43781,65.010839 z"
           style="fill:#808080;fill-opacity:0.25;fill-rule:nonzero;stroke:#808080;stroke-width:1;stroke-linecap:butt;stroke-linejoin:miter;stroke-miterlimit:10;stroke-dasharray:none;stroke-opacity:0.25"
           id="path22" />
      </g>
    </g>
    <g
       id="g24">
      <g
         id="g26"
         clip-path="url(#clipPath30)">
        <path
           d="M 410.2586,224.72264 369.56108,335.63114 267.05762,393.00169 153.0947,370.71855 73.042148,284.53872 81.184701,167.87021 155.2755,82.503987 265.08484,67.631782 366.02067,116.78491 Z"
           style="fill:#ffad96;fill-opacity:0.25;fill-rule:nonzero;stroke:#ffad96;stroke-width:1;stroke-linecap:butt;stroke-linejoin:miter;stroke-miterlimit:10;stroke-dasharray:none;stroke-opacity:0.25"
           id="path32" />
      </g>
    </g>
    <g
       id="g34">
      <g
         id="g36"
         clip-path="url(#clipPath40)">
        <path
           d="M 237.38548,224.72264 H 449.9831"
           style="fill:none;stroke:#b0b0b0;stroke-width:0.8;stroke-linecap:square;stroke-linejoin:round;stroke-miterlimit:10;stroke-dasharray:none;stroke-opacity:1"
           id="path42" />
      </g>
    </g>
    <g
       id="g44">
      <g
         id="g46"
         transform="translate(417.43916,221.96483)">
        <text
           xml:space="preserve"
           transform="scale(1,-1)"
           style="font-variant:normal;font-weight:bold;font-size:10px;font-family:'DejaVu Sans';-inkscape-font-specification:DejaVuSans-Bold;writing-mode:lr-tb;fill:#7a52a6;fill-opacity:1;fill-rule:nonzero;stroke:none"
           id="text50"><tspan
             x="0 9.9499998 18.07 25.27 28.99 36.548752 40.69875 47.766876 55.506874 64.006874"
             y="0"
             id="tspan48">MUSIC-AVQA</tspan></text>
      </g>
    </g>
    <g
       id="g52">
      <g
         id="g54"
         clip-path="url(#clipPath58)">
        <path
           d="M 237.38548,224.72264 400.24471,361.37776"
           style="fill:none;stroke:#b0b0b0;stroke-width:0.8;stroke-linecap:square;stroke-linejoin:round;stroke-miterlimit:10;stroke-dasharray:none;stroke-opacity:1"
           id="path60" />
      </g>
    </g>
    <g
       id="g62">
      <g
         id="g64"
         transform="translate(375.58418,360.78622)">
        <text
           xml:space="preserve"
           transform="scale(1,-1)"
           style="font-variant:normal;font-weight:bold;font-size:10px;font-family:'DejaVu Sans';-inkscape-font-specification:DejaVuSans-Bold;writing-mode:lr-tb;fill:#7a52a6;fill-opacity:1;fill-rule:nonzero;stroke:none"
           id="text68"><tspan
             x="0 9.9499998 19.9 27.52 34.299999 41.419998 47.349998"
             y="0"
             id="tspan66">MMBench</tspan></text>
      </g>
    </g>
    <g
       id="g70">
      <g
         id="g72"
         clip-path="url(#clipPath76)">
        <path
           d="m 237.38548,224.72264 36.91719,209.36779"
           style="fill:none;stroke:#b0b0b0;stroke-width:0.8;stroke-linecap:square;stroke-linejoin:round;stroke-miterlimit:10;stroke-dasharray:none;stroke-opacity:1"
           id="path78" />
      </g>
    </g>
    <g
       id="g80">
      <g
         id="g82"
         transform="translate(257.13007,434.65154)">
        <text
           xml:space="preserve"
           transform="scale(1,-1)"
           style="font-variant:normal;font-weight:bold;font-size:10px;font-family:'DejaVu Sans';-inkscape-font-specification:DejaVuSans-Bold;writing-mode:lr-tb;fill:#7a52a6;fill-opacity:1;fill-rule:nonzero;stroke:none"
           id="text86"><tspan
             x="0 9.9499998 19.9 27.343124"
             y="0"
             id="tspan84">MMAU</tspan></text>
      </g>
    </g>
    <g
       id="g88">
      <g
         id="g90"
         clip-path="url(#clipPath94)">
        <path
           d="M 237.38548,224.72264 131.08667,408.83758"
           style="fill:none;stroke:#b0b0b0;stroke-width:0.8;stroke-linecap:square;stroke-linejoin:round;stroke-miterlimit:10;stroke-dasharray:none;stroke-opacity:1"
           id="path96" />
      </g>
    </g>
    <g
       id="g98">
      <g
         id="g100"
         transform="translate(93.487547,408.99838)">
        <text
           xml:space="preserve"
           transform="scale(1,-1)"
           style="font-variant:normal;font-weight:bold;font-size:10px;font-family:'DejaVu Sans';-inkscape-font-specification:DejaVuSans-Bold;writing-mode:lr-tb;fill:#2aa371;fill-opacity:1;fill-rule:nonzero;stroke:none"
           id="text104"><tspan
             x="0 9.9499998 18.07 25.27 28.99 36.548752 40.69875 47.766876 55.506874 64.006874"
             y="0"
             id="tspan102">MUSIC-AVQA</tspan></text>
      </g>
    </g>
    <g
       id="g106">
      <g
         id="g108"
         clip-path="url(#clipPath112)">
        <path
           d="M 237.38548,224.72264 37.609063,297.43531"
           style="fill:none;stroke:#b0b0b0;stroke-width:0.8;stroke-linecap:square;stroke-linejoin:round;stroke-miterlimit:10;stroke-dasharray:none;stroke-opacity:1"
           id="path114" />
      </g>
    </g>
    <g
       id="g116">
      <g
         id="g118"
         transform="translate(7.2,295.83015)">
        <text
           xml:space="preserve"
           transform="scale(1,-1)"
           style="font-variant:normal;font-weight:bold;font-size:10px;font-family:'DejaVu Sans';-inkscape-font-specification:DejaVuSans-Bold;writing-mode:lr-tb;fill:#2aa371;fill-opacity:1;fill-rule:nonzero;stroke:none"
           id="text122"><tspan
             x="0 9.9499998 19.9 27.52 34.299999 41.419998 47.349998"
             y="0"
             id="tspan120">MMBench</tspan></text>
      </g>
    </g>
    <g
       id="g124">
      <g
         id="g126"
         clip-path="url(#clipPath130)">
        <path
           d="M 237.38548,224.72264 37.609063,152.00997"
           style="fill:none;stroke:#b0b0b0;stroke-width:0.8;stroke-linecap:square;stroke-linejoin:round;stroke-miterlimit:10;stroke-dasharray:none;stroke-opacity:1"
           id="path132" />
      </g>
    </g>
    <g
       id="g134">
      <g
         id="g136"
         transform="translate(16.684375,148.09951)">
        <text
           xml:space="preserve"
           transform="scale(1,-1)"
           style="font-variant:normal;font-weight:bold;font-size:10px;font-family:'DejaVu Sans';-inkscape-font-specification:DejaVuSans-Bold;writing-mode:lr-tb;fill:#2aa371;fill-opacity:1;fill-rule:nonzero;stroke:none"
           id="text140"><tspan
             x="0 9.9499998 19.9 27.343124"
             y="0"
             id="tspan138">MMAU</tspan></text>
      </g>
    </g>
    <g
       id="g142">
      <g
         id="g144"
         clip-path="url(#clipPath148)">
        <path
           d="M 237.38548,224.72264 131.08667,40.607702"
           style="fill:none;stroke:#b0b0b0;stroke-width:0.8;stroke-linecap:square;stroke-linejoin:round;stroke-miterlimit:10;stroke-dasharray:none;stroke-opacity:1"
           id="path150" />
      </g>
    </g>
    <g
       id="g152">
      <g
         id="g154"
         transform="translate(93.487547,34.931281)">
        <text
           xml:space="preserve"
           transform="scale(1,-1)"
           style="font-variant:normal;font-weight:bold;font-size:10px;font-family:'DejaVu Sans';-inkscape-font-specification:DejaVuSans-Bold;writing-mode:lr-tb;fill:#588cd4;fill-opacity:1;fill-rule:nonzero;stroke:none"
           id="text158"><tspan
             x="0 9.9499998 18.07 25.27 28.99 36.548752 40.69875 47.766876 55.506874 64.006874"
             y="0"
             id="tspan156">MUSIC-AVQA</tspan></text>
      </g>
    </g>
    <g
       id="g160">
      <g
         id="g162"
         clip-path="url(#clipPath166)">
        <path
           d="M 237.38548,224.72264 274.30267,15.354857"
           style="fill:none;stroke:#b0b0b0;stroke-width:0.8;stroke-linecap:square;stroke-linejoin:round;stroke-miterlimit:10;stroke-dasharray:none;stroke-opacity:1"
           id="path168" />
      </g>
    </g>
    <g
       id="g170">
      <g
         id="g172"
         transform="translate(247.6457,9.278125)">
        <text
           xml:space="preserve"
           transform="scale(1,-1)"
           style="font-variant:normal;font-weight:bold;font-size:10px;font-family:'DejaVu Sans';-inkscape-font-specification:DejaVuSans-Bold;writing-mode:lr-tb;fill:#588cd4;fill-opacity:1;fill-rule:nonzero;stroke:none"
           id="text176"><tspan
             x="0 9.9499998 19.9 27.52 34.299999 41.419998 47.349998"
             y="0"
             id="tspan174">MMBench</tspan></text>
      </g>
    </g>
    <g
       id="g178">
      <g
         id="g180"
         clip-path="url(#clipPath184)">
        <path
           d="M 237.38548,224.72264 400.24471,88.067526"
           style="fill:none;stroke:#b0b0b0;stroke-width:0.8;stroke-linecap:square;stroke-linejoin:round;stroke-miterlimit:10;stroke-dasharray:none;stroke-opacity:1"
           id="path186" />
      </g>
    </g>
    <g
       id="g188">
      <g
         id="g190"
         transform="translate(385.06856,83.143443)">
        <text
           xml:space="preserve"
           transform="scale(1,-1)"
           style="font-variant:normal;font-weight:bold;font-size:10px;font-family:'DejaVu Sans';-inkscape-font-specification:DejaVuSans-Bold;writing-mode:lr-tb;fill:#588cd4;fill-opacity:1;fill-rule:nonzero;stroke:none"
           id="text194"><tspan
             x="0 9.9499998 19.9 27.343124"
             y="0"
             id="tspan192">MMAU</tspan></text>
      </g>
    </g>
    <g
       id="g196">
      <g
         id="g198"
         clip-path="url(#clipPath202)">
        <path
           d="m 290.20476,224.72264 -0.10464,3.32319 -0.31352,3.31002 -0.52115,3.28374 -0.72672,3.24444 -0.92941,3.19229 -1.12841,3.1275 -1.32295,3.0503 -1.51224,2.96102 -1.69554,2.86001 -1.87213,2.74767 -2.04128,2.62444 -2.20237,2.49081 -2.35471,2.34731 -2.49773,2.19451 -2.63085,2.03301 -2.75355,1.86347 -2.86533,1.68653 -2.96577,1.50291 -3.05445,1.31334 -3.13103,1.11856 -3.1952,0.91936 -3.24672,0.7165 -3.28536,0.51082 -3.31099,0.30309 -3.3235,0.0942 -3.32284,-0.11511 -3.30902,-0.32394 -3.28208,-0.53148 -3.24214,-0.73693 -3.18935,-0.93946 -3.12392,-1.13825 -3.04612,-1.33254 -2.95625,-1.52156 -2.85466,-1.70453 -2.74177,-1.88076 -2.618,-2.04954 -2.48386,-2.21019 -2.33989,-2.36209 -2.18663,-2.50463 -2.02473,-2.63724 -1.85478,-2.7594 -1.6775,-2.87063 -1.49357,-2.97048 -1.30372,-3.05857 -1.1087,-3.13454 -0.90929,-3.19808 -0.70628,-3.24895 -0.50047,-3.28695 -0.29268,-3.31193 -0.0837,-3.32378 0.12557,-3.32247 0.33435,-3.30798 0.54181,-3.28039 0.74714,-3.2398 0.94948,-3.18638 1.14809,-3.12033 1.34212,-3.04191 1.53085,-2.95144 1.71352,-2.84928 1.88938,-2.73583 2.05777,-2.61153 2.218,-2.4769 2.36944,-2.33244 2.5115,-2.17874 2.6436,-2.01641 2.76522,-1.84609 2.8759,-1.66846 2.97517,-1.48421 3.06266,-1.29408 3.13801,-1.09883 3.20093,-0.89922 3.25116,-0.69605 3.28851,-0.49012 3.31283,-0.28225 3.32403,-0.0733 3.32205,0.13603 3.30691,0.34476 3.27867,0.55214 3.23744,0.75733 3.18337,0.95951 3.1167,1.1579 3.03767,1.35169 2.94661,1.54014 2.84387,1.72247 2.72987,1.89799 2.60504,2.06598 2.4699,2.22578 2.32497,2.37678 2.17083,2.51834 2.00808,2.64993 1.83738,2.77103 1.65939,2.88113 1.47484,2.97983 1.28444,3.06672 1.08894,3.14145 0.88914,3.20374 0.68581,3.25334 0.47977,3.29003 0.27181,3.31371 0.067,2.65918 v 0"
           style="fill:none;stroke:#808080;stroke-width:0.6;stroke-linecap:butt;stroke-linejoin:round;stroke-miterlimit:10;stroke-dasharray:0.6, 0.99;stroke-dashoffset:0;stroke-opacity:0.6"
           id="path204" />
      </g>
    </g>
    <g
       id="g206">
      <g
         id="g208"
         clip-path="url(#clipPath212)">
        <path
           d="m 343.02405,224.72264 -0.13396,5.31837 -0.40155,5.30488 -0.6681,5.27793 -0.93298,5.23761 -1.19548,5.18399 -1.45496,5.11723 -1.71073,5.03749 -1.96218,4.94498 -2.20865,4.83993 -2.44951,4.72259 -2.68416,4.59328 -2.912,4.45232 -3.13247,4.30007 -3.34498,4.13692 -3.54901,3.96327 -3.74404,3.77956 -3.92958,3.58628 -4.10514,3.3839 -4.2703,3.17293 -4.42462,2.95392 -4.56773,2.72742 -4.69925,2.494 -4.81885,2.25425 -4.92623,2.00879 -5.02111,1.75823 -5.10326,1.50322 -5.17248,1.24438 -5.22856,0.9824 -5.27139,0.71792 -5.30085,0.45162 -5.31686,0.18418 -5.31939,-0.0837 -5.30844,-0.35143 -5.284,-0.61823 -5.24619,-0.88348 -5.19505,-1.14647 -5.13074,-1.40657 -5.05343,-1.66309 -4.96328,-1.91539 -4.86057,-2.16284 -4.74551,-2.4048 -4.61843,-2.64067 -4.47962,-2.86983 -4.32946,-3.09172 -4.16832,-3.30576 -3.99661,-3.51142 -3.81475,-3.70818 -3.62323,-3.89554 -3.42251,-4.073 -3.21312,-4.24015 -2.99558,-4.39653 -2.77043,-4.54177 -2.53826,-4.67548 -2.29966,-4.79735 -2.05522,-4.90704 -1.80557,-5.00428 -1.55134,-5.08884 -1.29318,-5.16049 -1.03173,-5.21906 -0.76767,-5.26437 -0.50166,-5.29635 -0.23438,-5.31488 0.0335,-5.31995 0.30128,-5.31152 0.56831,-5.28961 0.83389,-5.25429 1.09736,-5.20565 1.35805,-5.14379 1.6153,-5.06891 1.86843,-4.98115 2.11684,-4.88078 2.35989,-4.76801 2.59693,-4.64315 2.8274,-4.50653 3.05069,-4.35846 3.26626,-4.19935 3.47352,-4.02959 3.67199,-3.8496 3.86115,-3.65986 4.0405,-3.46082 4.20961,-3.25302 4.36805,-3.03696 4.5154,-2.8132 4.65131,-2.5823 4.77541,-2.34486 4.88741,-2.10147 4.98702,-1.85275 5.07396,-1.59933 5.14805,-1.34185 5.20907,-1.08097 5.25689,-0.81735 5.29138,-0.55165 5.31243,-0.28456 5.32003,-0.0168 5.31412,0.25111 5.29475,0.51833 5.26193,0.78424 5.21577,1.04815 5.1564,1.30942 5.08393,1.56735 4.99858,1.82131 4.90054,2.07066 4.79009,2.31475 4.66747,2.55297 4.53302,2.78471 4.38709,3.0094 4.23,3.22645 4.06221,3.43532 3.88411,3.63547 3.69616,3.82641 3.49882,4.00764 3.29263,4.17871 3.07807,4.33917 2.85572,4.48863 2.62611,4.62672 2.38985,4.75306 2.14753,4.86735 1.89976,4.96929 1.64718,5.05863 1.3904,5.13515 1.13012,5.19863 0.86695,5.24894 0.6016,5.28593 0.33472,5.30951 0.0754,3.98951 v 0"
           style="fill:none;stroke:#808080;stroke-width:0.6;stroke-linecap:butt;stroke-linejoin:round;stroke-miterlimit:10;stroke-dasharray:0.6, 0.99;stroke-dashoffset:0;stroke-opacity:0.6"
           id="path214" />
      </g>
    </g>
    <g
       id="g216">
      <g
         id="g218"
         clip-path="url(#clipPath222)">
        <path
           d="m 395.84334,224.72264 -0.11305,5.98427 -0.33895,5.97573 -0.5644,5.95867 -0.78903,5.9331 -1.01253,5.89907 -1.23459,5.85662 -1.45489,5.80582 -1.67311,5.74673 -1.88895,5.67945 -2.10208,5.60406 -2.31223,5.52067 -2.51908,5.42942 -2.72232,5.3304 -2.92168,5.22379 -3.11688,5.10973 -3.30763,4.98837 -3.49366,4.8599 -3.67471,4.72449 -3.8505,4.58234 -4.02082,4.43365 -4.18538,4.27865 -4.34399,4.11752 -4.49639,3.95054 -4.64237,3.77791 -4.78174,3.59989 -4.91428,3.41673 -5.03981,3.22871 -5.15815,3.03608 -5.26913,2.8391 -5.37259,2.63809 -5.46839,2.43331 -5.55638,2.22506 -5.63645,2.01362 -5.70847,1.79933 -5.77236,1.58246 -5.82799,1.36333 -5.87533,1.14226 -5.91428,0.91956 -5.94478,0.69555 -5.96681,0.47054 -5.98033,0.24487 -5.98531,0.0188 -5.98174,-0.20721 -5.96966,-0.43297 -5.94904,-0.65811 -5.91995,-0.8823 -5.88241,-1.10525 -5.83646,-1.32662 -5.7822,-1.54608 -5.71969,-1.76335 -5.64902,-1.97811 -5.57028,-2.19002 -5.4836,-2.39884 -5.38909,-2.60421 -5.2869,-2.80588 -5.17716,-3.00354 -5.06003,-3.19691 -4.9357,-3.38573 -4.80431,-3.56972 -4.66606,-3.7486 -4.52118,-3.92215 -4.36982,-4.0901 -4.21224,-4.25221 -4.04865,-4.40825 -3.87928,-4.55801 -3.70437,-4.70126 -3.52419,-4.83781 -3.33897,-4.96744 -3.14899,-5.09 -2.954511,-5.2053 -2.755826,-5.31316 -2.553204,-5.41344 -2.346941,-5.50601 -2.137328,-5.59072 -1.924667,-5.66744 -1.709259,-5.73608 -1.491412,-5.79655 -1.271438,-5.84873 -1.049649,-5.89258 -0.826363,-5.92802 -0.601899,-5.95499 -0.376574,-5.97348 -0.150714,-5.98344 0.07536,-5.98486 0.301331,-5.97775 0.52687,-5.9621 0.751657,-5.93795 0.975372,-5.90533 1.197694,-5.86427 1.418308,-5.81487 1.636899,-5.75715 1.853154,-5.69123 2.066765,-5.61718 2.277428,-5.53512 2.48484,-5.44517 2.688708,-5.34743 2.888739,-5.24209 3.08465,-5.12925 3.27616,-5.00909 3.463,-4.8818 3.64488,-4.74753 3.82158,-4.60649 3.99282,-4.45888 4.15837,-4.30491 4.31798,-4.14479 4.47143,-3.97877 4.61849,-3.80706 4.75899,-3.629922 4.89267,-3.447609 5.01938,-3.260374 5.13893,-3.068488 5.25115,-2.872224 5.35588,-2.671861 5.45296,-2.467688 5.54226,-2.259992 5.62366,-2.049072 5.69703,-1.83523 5.76228,-1.618768 5.8193,-1.399997 5.86802,-1.179228 5.90837,-0.956777 5.94029,-0.732961 5.96373,-0.5081 5.97866,-0.282512 5.98507,-0.05652 5.98293,0.169548 5.97227,0.395376 5.95307,0.620641 5.92538,0.84502 5.88925,1.068194 5.8447,1.289842 5.79182,1.509652 5.73068,1.727307 5.66136,1.942497 5.58395,2.154917 5.4986,2.364261 5.40538,2.570233 5.30446,2.772537 5.19596,2.970886 5.08007,3.164996 4.95691,3.354589 4.82669,3.539398 4.68957,3.719149 4.54578,3.89361 4.39548,4.06251 4.23893,4.2256 4.07632,4.38268 3.9079,4.53349 3.7339,4.67785 3.55457,4.81552 3.37018,4.94633 3.18097,5.07007 2.98723,5.18659 2.78922,5.29571 2.58724,5.39726 2.38156,5.49112 2.17248,5.57715 1.96031,5.65521 1.74534,5.72522 1.52787,5.78704 1.30824,5.84061 1.08672,5.88585 0.86367,5.9227 0.63938,5.95109 0.41417,5.97098 0.18838,5.98238 0.0126,1.99517 v 0"
           style="fill:none;stroke:#808080;stroke-width:0.6;stroke-linecap:butt;stroke-linejoin:round;stroke-miterlimit:10;stroke-dasharray:0.6, 0.99;stroke-dashoffset:0;stroke-opacity:0.6"
           id="path224" />
      </g>
    </g>
    <g
       id="g226">
      <g
         id="g228"
         clip-path="url(#clipPath232)">
        <path
           d="M 237.38548,224.72264 H 439.85941"
           style="fill:none;stroke:#808080;stroke-width:0.8;stroke-linecap:butt;stroke-linejoin:round;stroke-miterlimit:10;stroke-dasharray:2.96, 1.28;stroke-dashoffset:0;stroke-opacity:0.6"
           id="path234" />
      </g>
    </g>
    <g
       id="g236">
      <g
         id="g238"
         clip-path="url(#clipPath242)">
        <path
           d="M 237.38548,224.72264 392.48951,354.87037"
           style="fill:none;stroke:#808080;stroke-width:0.8;stroke-linecap:butt;stroke-linejoin:round;stroke-miterlimit:10;stroke-dasharray:2.96, 1.28;stroke-dashoffset:0;stroke-opacity:0.6"
           id="path244" />
      </g>
    </g>
    <g
       id="g246">
      <g
         id="g248"
         clip-path="url(#clipPath252)">
        <path
           d="m 237.38548,224.72264 35.15923,199.3979"
           style="fill:none;stroke:#808080;stroke-width:0.8;stroke-linecap:butt;stroke-linejoin:round;stroke-miterlimit:10;stroke-dasharray:2.96, 1.28;stroke-dashoffset:0;stroke-opacity:0.6"
           id="path254" />
      </g>
    </g>
    <g
       id="g256">
      <g
         id="g258"
         clip-path="url(#clipPath262)">
        <path
           d="M 237.38548,224.72264 136.14852,400.07021"
           style="fill:none;stroke:#808080;stroke-width:0.8;stroke-linecap:butt;stroke-linejoin:round;stroke-miterlimit:10;stroke-dasharray:2.96, 1.28;stroke-dashoffset:0;stroke-opacity:0.6"
           id="path264" />
      </g>
    </g>
    <g
       id="g266">
      <g
         id="g268"
         clip-path="url(#clipPath272)">
        <path
           d="M 237.38548,224.72264 47.122226,293.9728"
           style="fill:none;stroke:#808080;stroke-width:0.8;stroke-linecap:butt;stroke-linejoin:round;stroke-miterlimit:10;stroke-dasharray:2.96, 1.28;stroke-dashoffset:0;stroke-opacity:0.6"
           id="path274" />
      </g>
    </g>
    <g
       id="g276">
      <g
         id="g278"
         clip-path="url(#clipPath282)">
        <path
           d="M 237.38548,224.72264 47.122226,155.47248"
           style="fill:none;stroke:#808080;stroke-width:0.8;stroke-linecap:butt;stroke-linejoin:round;stroke-miterlimit:10;stroke-dasharray:2.96, 1.28;stroke-dashoffset:0;stroke-opacity:0.6"
           id="path284" />
      </g>
    </g>
    <g
       id="g286">
      <g
         id="g288"
         clip-path="url(#clipPath292)">
        <path
           d="M 237.38548,224.72264 136.14852,49.37508"
           style="fill:none;stroke:#808080;stroke-width:0.8;stroke-linecap:butt;stroke-linejoin:round;stroke-miterlimit:10;stroke-dasharray:2.96, 1.28;stroke-dashoffset:0;stroke-opacity:0.6"
           id="path294" />
      </g>
    </g>
    <g
       id="g296">
      <g
         id="g298"
         clip-path="url(#clipPath302)">
        <path
           d="M 237.38548,224.72264 272.54471,25.324751"
           style="fill:none;stroke:#808080;stroke-width:0.8;stroke-linecap:butt;stroke-linejoin:round;stroke-miterlimit:10;stroke-dasharray:2.96, 1.28;stroke-dashoffset:0;stroke-opacity:0.6"
           id="path304" />
      </g>
    </g>
    <g
       id="g306">
      <g
         id="g308"
         clip-path="url(#clipPath312)">
        <path
           d="M 237.38548,224.72264 392.48951,94.574913"
           style="fill:none;stroke:#808080;stroke-width:0.8;stroke-linecap:butt;stroke-linejoin:round;stroke-miterlimit:10;stroke-dasharray:2.96, 1.28;stroke-dashoffset:0;stroke-opacity:0.6"
           id="path314" />
      </g>
    </g>
    <g
       id="g316">
      <g
         id="g318"
         clip-path="url(#clipPath322)">
        <path
           d="m 384.94936,224.72264 -37.17546,92.62688 -93.76623,1.64224 -97.21562,45.32279 -67.756759,-85.59685 38.863659,-93.84489 46.82365,-68.68546 86.78517,-28.268999 61.43781,65.010839 62.00378,71.79345"
           style="fill:none;stroke:#808080;stroke-width:2;stroke-linecap:square;stroke-linejoin:round;stroke-miterlimit:10;stroke-dasharray:none;stroke-opacity:1"
           id="path324" />
      </g>
    </g>
    <g
       id="g326">
      <g
         id="g328"
         clip-path="url(#clipPath332)">
        <path
           d="M 410.2586,224.72264 369.56108,335.63114 267.05762,393.00169 153.0947,370.71855 73.042148,284.53872 81.184701,167.87021 155.2755,82.503987 265.08484,67.631782 366.02067,116.78491 410.2586,224.72264"
           style="fill:none;stroke:#ffad96;stroke-width:2;stroke-linecap:square;stroke-linejoin:round;stroke-miterlimit:10;stroke-dasharray:none;stroke-opacity:1"
           id="path334" />
      </g>
    </g>
    <g
       id="g336">
      <g
         id="g338"
         transform="translate(290.97982,226.39452)">
        <text
           xml:space="preserve"
           transform="scale(1,-1)"
           style="font-variant:normal;font-weight:normal;font-size:8px;font-family:'DejaVu Sans';-inkscape-font-specification:DejaVuSans;writing-mode:lr-tb;fill:#808080;fill-opacity:1;fill-rule:nonzero;stroke:none"
           id="text342"><tspan
             x="0 5.0879998"
             y="0"
             id="tspan340">65</tspan></text>
      </g>
      <g
         id="g344"
         transform="translate(349.66792,226.39452)">
        <text
           xml:space="preserve"
           transform="scale(1,-1)"
           style="font-variant:normal;font-weight:normal;font-size:8px;font-family:'DejaVu Sans';-inkscape-font-specification:DejaVuSans;writing-mode:lr-tb;fill:#808080;fill-opacity:1;fill-rule:nonzero;stroke:none"
           id="text348"><tspan
             x="0 5.0879998"
             y="0"
             id="tspan346">71</tspan></text>
      </g>
      <g
         id="g350"
         transform="translate(408.35601,226.39452)">
        <text
           xml:space="preserve"
           transform="scale(1,-1)"
           style="font-variant:normal;font-weight:normal;font-size:8px;font-family:'DejaVu Sans';-inkscape-font-specification:DejaVuSans;writing-mode:lr-tb;fill:#808080;fill-opacity:1;fill-rule:nonzero;stroke:none"
           id="text354"><tspan
             x="0 5.0879998"
             y="0"
             id="tspan352">76</tspan></text>
      </g>
      <g
         id="g356"
         transform="translate(277.24942,264.1185)">
        <text
           xml:space="preserve"
           transform="scale(1,-1)"
           style="font-variant:normal;font-weight:normal;font-size:8px;font-family:'DejaVu Sans';-inkscape-font-specification:DejaVuSans;writing-mode:lr-tb;fill:#808080;fill-opacity:1;fill-rule:nonzero;stroke:none"
           id="text360"><tspan
             x="0 5.0879998"
             y="0"
             id="tspan358">44</tspan></text>
      </g>
      <g
         id="g362"
         transform="translate(322.20711,301.84248)">
        <text
           xml:space="preserve"
           transform="scale(1,-1)"
           style="font-variant:normal;font-weight:normal;font-size:8px;font-family:'DejaVu Sans';-inkscape-font-specification:DejaVuSans;writing-mode:lr-tb;fill:#808080;fill-opacity:1;fill-rule:nonzero;stroke:none"
           id="text366"><tspan
             x="0 5.0879998"
             y="0"
             id="tspan364">49</tspan></text>
      </g>
      <g
         id="g368"
         transform="translate(367.1648,339.56646)">
        <text
           xml:space="preserve"
           transform="scale(1,-1)"
           style="font-variant:normal;font-weight:normal;font-size:8px;font-family:'DejaVu Sans';-inkscape-font-specification:DejaVuSans;writing-mode:lr-tb;fill:#808080;fill-opacity:1;fill-rule:nonzero;stroke:none"
           id="text372"><tspan
             x="0 5.0879998"
             y="0"
             id="tspan370">53</tspan></text>
      </g>
      <g
         id="g374"
         transform="translate(242.48281,284.19101)">
        <text
           xml:space="preserve"
           transform="scale(1,-1)"
           style="font-variant:normal;font-weight:normal;font-size:8px;font-family:'DejaVu Sans';-inkscape-font-specification:DejaVuSans;writing-mode:lr-tb;fill:#808080;fill-opacity:1;fill-rule:nonzero;stroke:none"
           id="text378"><tspan
             x="0 5.0879998"
             y="0"
             id="tspan376">26</tspan></text>
      </g>
      <g
         id="g380"
         transform="translate(252.67389,341.9875)">
        <text
           xml:space="preserve"
           transform="scale(1,-1)"
           style="font-variant:normal;font-weight:normal;font-size:8px;font-family:'DejaVu Sans';-inkscape-font-specification:DejaVuSans;writing-mode:lr-tb;fill:#808080;fill-opacity:1;fill-rule:nonzero;stroke:none"
           id="text384"><tspan
             x="0 5.0879998"
             y="0"
             id="tspan382">33</tspan></text>
      </g>
      <g
         id="g386"
         transform="translate(262.86497,399.78399)">
        <text
           xml:space="preserve"
           transform="scale(1,-1)"
           style="font-variant:normal;font-weight:normal;font-size:8px;font-family:'DejaVu Sans';-inkscape-font-specification:DejaVuSans;writing-mode:lr-tb;fill:#808080;fill-opacity:1;fill-rule:nonzero;stroke:none"
           id="text390"><tspan
             x="0 5.0879998"
             y="0"
             id="tspan388">39</tspan></text>
      </g>
      <g
         id="g392"
         transform="translate(202.94768,277.2199)">
        <text
           xml:space="preserve"
           transform="scale(1,-1)"
           style="font-variant:normal;font-weight:normal;font-size:8px;font-family:'DejaVu Sans';-inkscape-font-specification:DejaVuSans;writing-mode:lr-tb;fill:#808080;fill-opacity:1;fill-rule:nonzero;stroke:none"
           id="text396"><tspan
             x="0 5.0879998"
             y="0"
             id="tspan394">67</tspan></text>
      </g>
      <g
         id="g398"
         transform="translate(173.60364,328.04528)">
        <text
           xml:space="preserve"
           transform="scale(1,-1)"
           style="font-variant:normal;font-weight:normal;font-size:8px;font-family:'DejaVu Sans';-inkscape-font-specification:DejaVuSans;writing-mode:lr-tb;fill:#808080;fill-opacity:1;fill-rule:nonzero;stroke:none"
           id="text402"><tspan
             x="0 5.0879998"
             y="0"
             id="tspan400">73</tspan></text>
      </g>
      <g
         id="g404"
         transform="translate(144.25959,378.87066)">
        <text
           xml:space="preserve"
           transform="scale(1,-1)"
           style="font-variant:normal;font-weight:normal;font-size:8px;font-family:'DejaVu Sans';-inkscape-font-specification:DejaVuSans;writing-mode:lr-tb;fill:#808080;fill-opacity:1;fill-rule:nonzero;stroke:none"
           id="text408"><tspan
             x="0 5.0879998"
             y="0"
             id="tspan406">80</tspan></text>
      </g>
      <g
         id="g410"
         transform="translate(177.14296,246.46703)">
        <text
           xml:space="preserve"
           transform="scale(1,-1)"
           style="font-variant:normal;font-weight:normal;font-size:8px;font-family:'DejaVu Sans';-inkscape-font-specification:DejaVuSans;writing-mode:lr-tb;fill:#808080;fill-opacity:1;fill-rule:nonzero;stroke:none"
           id="text414"><tspan
             x="0 5.0879998"
             y="0"
             id="tspan412">60</tspan></text>
      </g>
      <g
         id="g416"
         transform="translate(121.99419,266.53954)">
        <text
           xml:space="preserve"
           transform="scale(1,-1)"
           style="font-variant:normal;font-weight:normal;font-size:8px;font-family:'DejaVu Sans';-inkscape-font-specification:DejaVuSans;writing-mode:lr-tb;fill:#808080;fill-opacity:1;fill-rule:nonzero;stroke:none"
           id="text420"><tspan
             x="0 5.0879998"
             y="0"
             id="tspan418">65</tspan></text>
      </g>
      <g
         id="g422"
         transform="translate(66.845422,286.61205)">
        <text
           xml:space="preserve"
           transform="scale(1,-1)"
           style="font-variant:normal;font-weight:normal;font-size:8px;font-family:'DejaVu Sans';-inkscape-font-specification:DejaVuSans;writing-mode:lr-tb;fill:#808080;fill-opacity:1;fill-rule:nonzero;stroke:none"
           id="text426"><tspan
             x="0 5.0879998"
             y="0"
             id="tspan424">70</tspan></text>
      </g>
      <g
         id="g428"
         transform="translate(177.14296,206.32201)">
        <text
           xml:space="preserve"
           transform="scale(1,-1)"
           style="font-variant:normal;font-weight:normal;font-size:8px;font-family:'DejaVu Sans';-inkscape-font-specification:DejaVuSans;writing-mode:lr-tb;fill:#808080;fill-opacity:1;fill-rule:nonzero;stroke:none"
           id="text432"><tspan
             x="0 5.0879998"
             y="0"
             id="tspan430">41</tspan></text>
      </g>
      <g
         id="g434"
         transform="translate(121.99419,186.2495)">
        <text
           xml:space="preserve"
           transform="scale(1,-1)"
           style="font-variant:normal;font-weight:normal;font-size:8px;font-family:'DejaVu Sans';-inkscape-font-specification:DejaVuSans;writing-mode:lr-tb;fill:#808080;fill-opacity:1;fill-rule:nonzero;stroke:none"
           id="text438"><tspan
             x="0 5.0879998"
             y="0"
             id="tspan436">46</tspan></text>
      </g>
      <g
         id="g440"
         transform="translate(66.845422,166.17699)">
        <text
           xml:space="preserve"
           transform="scale(1,-1)"
           style="font-variant:normal;font-weight:normal;font-size:8px;font-family:'DejaVu Sans';-inkscape-font-specification:DejaVuSans;writing-mode:lr-tb;fill:#808080;fill-opacity:1;fill-rule:nonzero;stroke:none"
           id="text444"><tspan
             x="0 5.0879998"
             y="0"
             id="tspan442">52</tspan></text>
      </g>
      <g
         id="g446"
         transform="translate(202.94768,175.56914)">
        <text
           xml:space="preserve"
           transform="scale(1,-1)"
           style="font-variant:normal;font-weight:normal;font-size:8px;font-family:'DejaVu Sans';-inkscape-font-specification:DejaVuSans;writing-mode:lr-tb;fill:#808080;fill-opacity:1;fill-rule:nonzero;stroke:none"
           id="text450"><tspan
             x="0 5.0879998"
             y="0"
             id="tspan448">69</tspan></text>
      </g>
      <g
         id="g452"
         transform="translate(173.60364,124.74376)">
        <text
           xml:space="preserve"
           transform="scale(1,-1)"
           style="font-variant:normal;font-weight:normal;font-size:8px;font-family:'DejaVu Sans';-inkscape-font-specification:DejaVuSans;writing-mode:lr-tb;fill:#808080;fill-opacity:1;fill-rule:nonzero;stroke:none"
           id="text456"><tspan
             x="0 5.0879998"
             y="0"
             id="tspan454">72</tspan></text>
      </g>
      <g
         id="g458"
         transform="translate(144.25959,73.918376)">
        <text
           xml:space="preserve"
           transform="scale(1,-1)"
           style="font-variant:normal;font-weight:normal;font-size:8px;font-family:'DejaVu Sans';-inkscape-font-specification:DejaVuSans;writing-mode:lr-tb;fill:#808080;fill-opacity:1;fill-rule:nonzero;stroke:none"
           id="text462"><tspan
             x="0 5.0879998"
             y="0"
             id="tspan460">76</tspan></text>
      </g>
      <g
         id="g464"
         transform="translate(242.48281,168.59803)">
        <text
           xml:space="preserve"
           transform="scale(1,-1)"
           style="font-variant:normal;font-weight:normal;font-size:8px;font-family:'DejaVu Sans';-inkscape-font-specification:DejaVuSans;writing-mode:lr-tb;fill:#808080;fill-opacity:1;fill-rule:nonzero;stroke:none"
           id="text468"><tspan
             x="0 5.0879998"
             y="0"
             id="tspan466">53</tspan></text>
      </g>
      <g
         id="g470"
         transform="translate(252.67389,110.80154)">
        <text
           xml:space="preserve"
           transform="scale(1,-1)"
           style="font-variant:normal;font-weight:normal;font-size:8px;font-family:'DejaVu Sans';-inkscape-font-specification:DejaVuSans;writing-mode:lr-tb;fill:#808080;fill-opacity:1;fill-rule:nonzero;stroke:none"
           id="text474"><tspan
             x="0 5.0879998"
             y="0"
             id="tspan472">57</tspan></text>
      </g>
      <g
         id="g476"
         transform="translate(262.86497,53.005047)">
        <text
           xml:space="preserve"
           transform="scale(1,-1)"
           style="font-variant:normal;font-weight:normal;font-size:8px;font-family:'DejaVu Sans';-inkscape-font-specification:DejaVuSans;writing-mode:lr-tb;fill:#808080;fill-opacity:1;fill-rule:nonzero;stroke:none"
           id="text480"><tspan
             x="0 5.0879998"
             y="0"
             id="tspan478">60</tspan></text>
      </g>
      <g
         id="g482"
         transform="translate(277.24942,188.67054)">
        <text
           xml:space="preserve"
           transform="scale(1,-1)"
           style="font-variant:normal;font-weight:normal;font-size:8px;font-family:'DejaVu Sans';-inkscape-font-specification:DejaVuSans;writing-mode:lr-tb;fill:#808080;fill-opacity:1;fill-rule:nonzero;stroke:none"
           id="text486"><tspan
             x="0 5.0879998"
             y="0"
             id="tspan484">45</tspan></text>
      </g>
      <g
         id="g488"
         transform="translate(322.20711,150.94656)">
        <text
           xml:space="preserve"
           transform="scale(1,-1)"
           style="font-variant:normal;font-weight:normal;font-size:8px;font-family:'DejaVu Sans';-inkscape-font-specification:DejaVuSans;writing-mode:lr-tb;fill:#808080;fill-opacity:1;fill-rule:nonzero;stroke:none"
           id="text492"><tspan
             x="0 5.0879998"
             y="0"
             id="tspan490">51</tspan></text>
      </g>
      <g
         id="g494"
         transform="translate(367.1648,113.22258)">
        <text
           xml:space="preserve"
           transform="scale(1,-1)"
           style="font-variant:normal;font-weight:normal;font-size:8px;font-family:'DejaVu Sans';-inkscape-font-specification:DejaVuSans;writing-mode:lr-tb;fill:#808080;fill-opacity:1;fill-rule:nonzero;stroke:none"
           id="text498"><tspan
             x="0 5.0879998"
             y="0"
             id="tspan496">56</tspan></text>
      </g>
      <g
         id="g500"
         transform="translate(291.84057,289.31331)">
        <text
           xml:space="preserve"
           transform="scale(1,-1)"
           style="font-variant:normal;font-weight:bold;font-size:12px;font-family:'DejaVu Sans';-inkscape-font-specification:DejaVuSans-Bold;writing-mode:lr-tb;fill:#7a52a6;fill-opacity:1;fill-rule:nonzero;stroke:none"
           id="text504"><tspan
             x="0 7.6440001 15.288 23.388 35.327999 44.616001"
             y="0"
             id="tspan502">LLaMA2</tspan></text>
      </g>
      <g
         id="g506"
         transform="translate(111.64895,257.54066)">
        <text
           xml:space="preserve"
           transform="scale(1,-1)"
           style="font-variant:normal;font-weight:bold;font-size:12px;font-family:'DejaVu Sans';-inkscape-font-specification:DejaVuSans-Bold;writing-mode:lr-tb;fill:#2aa371;fill-opacity:1;fill-rule:nonzero;stroke:none"
           id="text510"><tspan
             x="0 7.6440001 15.288 23.388 35.327999 44.616001"
             y="0"
             id="tspan508">LLaMA3</tspan></text>
      </g>
      <g
         id="g512"
         transform="translate(232.56536,117.37646)">
        <text
           xml:space="preserve"
           transform="scale(1,-1)"
           style="font-variant:normal;font-weight:bold;font-size:12px;font-family:'DejaVu Sans';-inkscape-font-specification:DejaVuSans-Bold;writing-mode:lr-tb;fill:#588cd4;fill-opacity:1;fill-rule:nonzero;stroke:none"
           id="text516"><tspan
             x="0 10.2 21.288 29.424 37.967999"
             y="0"
             id="tspan514">Qwen2</tspan></text>
      </g>
      <path
         d="m 393.31513,442.49604 h 92.1875 c 1.33333,0 2,0.66667 2,2 v 28.34375 c 0,1.33333 -0.66667,2 -2,2 h -92.1875 c -1.33334,0 -2,-0.66667 -2,-2 v -28.34375 c 0,-1.33333 0.66666,-2 2,-2 z"
         style="fill:#ffffff;fill-opacity:0.8;fill-rule:nonzero;stroke:#cccccc;stroke-width:1;stroke-linecap:butt;stroke-linejoin:miter;stroke-miterlimit:10;stroke-dasharray:none;stroke-opacity:0.8"
         id="path518" />
      <path
         d="m 395.31513,466.74604 h 10 10"
         style="fill:none;stroke:#808080;stroke-width:2;stroke-linecap:square;stroke-linejoin:round;stroke-miterlimit:10;stroke-dasharray:none;stroke-opacity:1"
         id="path520" />
      <g
         id="g522"
         transform="translate(423.31513,463.24604)">
        <text
           xml:space="preserve"
           transform="scale(1,-1)"
           style="font-variant:normal;font-weight:normal;font-size:10px;font-family:'DejaVu Sans';-inkscape-font-specification:DejaVuSans;writing-mode:lr-tb;fill:#000000;fill-opacity:1;fill-rule:nonzero;stroke:none"
           id="text526"><tspan
             x="0 5.3981252 11.518125 18.061874"
             y="0"
             id="tspan524">LoRA</tspan></text>
      </g>
      <path
         d="m 395.31513,452.07417 h 10 10"
         style="fill:none;stroke:#ffad96;stroke-width:2;stroke-linecap:square;stroke-linejoin:round;stroke-miterlimit:10;stroke-dasharray:none;stroke-opacity:1"
         id="path528" />
      <g
         id="g530"
         transform="translate(423.31513,448.57417)">
        <text
           xml:space="preserve"
           transform="scale(1,-1)"
           style="font-variant:normal;font-weight:normal;font-size:10px;font-family:'DejaVu Sans';-inkscape-font-specification:DejaVuSans;writing-mode:lr-tb;fill:#000000;fill-opacity:1;fill-rule:nonzero;stroke:none"
           id="text534"><tspan
             x="0 8.6300001 14.75 20.540001 27.379999 30.559999 34.459999 40.580002 46.919998 51.029999 56.240002"
             y="0"
             id="tspan532">MokA (ours)</tspan></text>
      </g>
    </g>
  </g>
</svg>
